<mxfile host="Electron" modified="2024-02-16T12:06:30.782Z" agent="Mozilla/5.0 (Macintosh; Intel Mac OS X 10_15_7) AppleWebKit/537.36 (KHTML, like Gecko) draw.io/23.1.5 Chrome/120.0.6099.109 Electron/28.1.0 Safari/537.36" etag="CzAYXk4kwhs7TJOn18zu" version="23.1.5" type="device">
  <diagram name="Page-1" id="neCwKnrj0E1NAa2IGDeo">
    <mxGraphModel dx="1363" dy="963" grid="1" gridSize="10" guides="1" tooltips="1" connect="1" arrows="1" fold="1" page="1" pageScale="1" pageWidth="1100" pageHeight="850" background="#ffffff" math="0" shadow="0">
      <root>
        <mxCell id="0" />
        <mxCell id="1" style="locked=1;" parent="0" />
        <mxCell id="J_gT9gZSH8yEWvH8vErG-2" value="UCL Firewall" style="rounded=0;whiteSpace=wrap;html=1;align=left;verticalAlign=top;fontSize=24;spacingLeft=5;" parent="1" vertex="1">
          <mxGeometry x="540" y="40" width="980" height="710" as="geometry" />
        </mxCell>
        <mxCell id="J_gT9gZSH8yEWvH8vErG-32" value="Resources" style="locked=1;" parent="0" />
        <mxCell id="J_gT9gZSH8yEWvH8vErG-33" value="" style="group" parent="J_gT9gZSH8yEWvH8vErG-32" vertex="1" connectable="0">
          <mxGeometry x="380" y="245" width="320" height="270" as="geometry" />
        </mxCell>
        <mxCell id="J_gT9gZSH8yEWvH8vErG-34" value="&lt;b&gt;ssh-gateway.ucl.ac.uk&lt;/b&gt;" style="rounded=0;whiteSpace=wrap;html=1;align=left;verticalAlign=top;fontSize=24;fontFamily=Courier New;spacingLeft=5;" parent="J_gT9gZSH8yEWvH8vErG-33" vertex="1">
          <mxGeometry width="320" height="270" as="geometry" />
        </mxCell>
        <mxCell id="J_gT9gZSH8yEWvH8vErG-35" value="" style="group" parent="J_gT9gZSH8yEWvH8vErG-33" vertex="1" connectable="0">
          <mxGeometry x="60" y="60" width="220" height="175" as="geometry" />
        </mxCell>
        <mxCell id="J_gT9gZSH8yEWvH8vErG-36" value="ejp-gateway01" style="rounded=0;whiteSpace=wrap;html=1;align=left;verticalAlign=top;fontSize=24;fontFamily=Courier New;spacingLeft=3;" parent="J_gT9gZSH8yEWvH8vErG-35" vertex="1">
          <mxGeometry width="220" height="70" as="geometry" />
        </mxCell>
        <mxCell id="J_gT9gZSH8yEWvH8vErG-37" value="ejp-gateway02" style="rounded=0;whiteSpace=wrap;html=1;align=left;verticalAlign=top;fontSize=24;fontFamily=Courier New;spacingLeft=3;" parent="J_gT9gZSH8yEWvH8vErG-35" vertex="1">
          <mxGeometry y="105" width="220" height="70" as="geometry" />
        </mxCell>
        <mxCell id="J_gT9gZSH8yEWvH8vErG-38" value="" style="group" parent="J_gT9gZSH8yEWvH8vErG-32" vertex="1" connectable="0">
          <mxGeometry x="20" y="240" width="190" height="130" as="geometry" />
        </mxCell>
        <mxCell id="J_gT9gZSH8yEWvH8vErG-39" value="Your computer" style="rounded=0;whiteSpace=wrap;html=1;verticalAlign=middle;align=center;fontSize=24;spacingLeft=5;" parent="J_gT9gZSH8yEWvH8vErG-38" vertex="1">
          <mxGeometry y="40" width="190" height="60" as="geometry" />
        </mxCell>
        <mxCell id="J_gT9gZSH8yEWvH8vErG-41" value="" style="group" parent="J_gT9gZSH8yEWvH8vErG-32" vertex="1" connectable="0">
          <mxGeometry x="930" y="80" width="570" height="480" as="geometry" />
        </mxCell>
        <mxCell id="J_gT9gZSH8yEWvH8vErG-42" value="&lt;font face=&quot;Courier New&quot;&gt;&lt;b&gt;myriad.rc.ucl.ac.uk&lt;/b&gt;&lt;/font&gt;" style="rounded=0;whiteSpace=wrap;html=1;align=left;verticalAlign=top;fontSize=24;spacingLeft=5;fillColor=none;" parent="J_gT9gZSH8yEWvH8vErG-41" vertex="1">
          <mxGeometry x="-80" width="650" height="480" as="geometry" />
        </mxCell>
        <mxCell id="J_gT9gZSH8yEWvH8vErG-43" value="" style="group" parent="J_gT9gZSH8yEWvH8vErG-41" vertex="1" connectable="0">
          <mxGeometry x="30" y="170" width="110" height="175" as="geometry" />
        </mxCell>
        <mxCell id="J_gT9gZSH8yEWvH8vErG-44" value="&lt;span&gt;login12&lt;/span&gt;" style="rounded=0;whiteSpace=wrap;html=1;align=left;verticalAlign=top;fontSize=24;fontFamily=Courier New;fontStyle=0;spacingLeft=3;" parent="J_gT9gZSH8yEWvH8vErG-43" vertex="1">
          <mxGeometry width="110" height="70" as="geometry" />
        </mxCell>
        <mxCell id="J_gT9gZSH8yEWvH8vErG-45" value="&lt;span&gt;login13&lt;/span&gt;" style="rounded=0;whiteSpace=wrap;html=1;align=left;verticalAlign=top;fontSize=24;fontFamily=Courier New;fontStyle=0;spacingLeft=3;" parent="J_gT9gZSH8yEWvH8vErG-43" vertex="1">
          <mxGeometry y="105" width="110" height="70" as="geometry" />
        </mxCell>
        <mxCell id="J_gT9gZSH8yEWvH8vErG-46" value="" style="group" parent="J_gT9gZSH8yEWvH8vErG-41" vertex="1" connectable="0">
          <mxGeometry x="180" y="70" width="380" height="390" as="geometry" />
        </mxCell>
        <mxCell id="J_gT9gZSH8yEWvH8vErG-47" value="&lt;font style=&quot;&quot; face=&quot;Helvetica&quot;&gt;compute nodes&lt;/font&gt;" style="rounded=0;whiteSpace=wrap;html=1;align=left;verticalAlign=top;fontSize=24;fillColor=none;dashed=1;spacingLeft=5;" parent="J_gT9gZSH8yEWvH8vErG-46" vertex="1">
          <mxGeometry width="380" height="390" as="geometry" />
        </mxCell>
        <mxCell id="J_gT9gZSH8yEWvH8vErG-48" value="" style="group" parent="J_gT9gZSH8yEWvH8vErG-46" vertex="1" connectable="0">
          <mxGeometry x="30" y="80" width="330" height="240" as="geometry" />
        </mxCell>
        <mxCell id="J_gT9gZSH8yEWvH8vErG-49" value="" style="rounded=0;whiteSpace=wrap;html=1;align=left;verticalAlign=top;fontSize=24;fontFamily=Courier New;" parent="J_gT9gZSH8yEWvH8vErG-48" vertex="1">
          <mxGeometry width="240" height="150" as="geometry" />
        </mxCell>
        <mxCell id="J_gT9gZSH8yEWvH8vErG-50" value="" style="rounded=0;whiteSpace=wrap;html=1;align=left;verticalAlign=top;fontSize=24;fontFamily=Courier New;" parent="J_gT9gZSH8yEWvH8vErG-48" vertex="1">
          <mxGeometry x="10" y="10" width="240" height="150" as="geometry" />
        </mxCell>
        <mxCell id="J_gT9gZSH8yEWvH8vErG-51" value="" style="rounded=0;whiteSpace=wrap;html=1;align=left;verticalAlign=top;fontSize=24;fontFamily=Courier New;" parent="J_gT9gZSH8yEWvH8vErG-48" vertex="1">
          <mxGeometry x="20" y="20" width="240" height="150" as="geometry" />
        </mxCell>
        <mxCell id="J_gT9gZSH8yEWvH8vErG-52" value="" style="rounded=0;whiteSpace=wrap;html=1;align=left;verticalAlign=top;fontSize=24;fontFamily=Courier New;" parent="J_gT9gZSH8yEWvH8vErG-48" vertex="1">
          <mxGeometry x="30" y="30" width="240" height="150" as="geometry" />
        </mxCell>
        <mxCell id="J_gT9gZSH8yEWvH8vErG-53" value="" style="rounded=0;whiteSpace=wrap;html=1;align=left;verticalAlign=top;fontSize=24;fontFamily=Courier New;" parent="J_gT9gZSH8yEWvH8vErG-48" vertex="1">
          <mxGeometry x="40" y="40" width="240" height="150" as="geometry" />
        </mxCell>
        <mxCell id="J_gT9gZSH8yEWvH8vErG-54" value="" style="rounded=0;whiteSpace=wrap;html=1;align=left;verticalAlign=top;fontSize=24;fontFamily=Courier New;" parent="J_gT9gZSH8yEWvH8vErG-48" vertex="1">
          <mxGeometry x="50" y="50" width="240" height="150" as="geometry" />
        </mxCell>
        <mxCell id="J_gT9gZSH8yEWvH8vErG-55" value="" style="rounded=0;whiteSpace=wrap;html=1;align=left;verticalAlign=top;fontSize=24;fontFamily=Courier New;" parent="J_gT9gZSH8yEWvH8vErG-48" vertex="1">
          <mxGeometry x="60" y="60" width="240" height="150" as="geometry" />
        </mxCell>
        <mxCell id="J_gT9gZSH8yEWvH8vErG-56" value="" style="rounded=0;whiteSpace=wrap;html=1;align=left;verticalAlign=top;fontSize=24;fontFamily=Courier New;" parent="J_gT9gZSH8yEWvH8vErG-48" vertex="1">
          <mxGeometry x="70" y="70" width="240" height="150" as="geometry" />
        </mxCell>
        <mxCell id="J_gT9gZSH8yEWvH8vErG-57" value="" style="rounded=0;whiteSpace=wrap;html=1;align=left;verticalAlign=top;fontSize=24;fontFamily=Courier New;" parent="J_gT9gZSH8yEWvH8vErG-48" vertex="1">
          <mxGeometry x="80" y="80" width="240" height="150" as="geometry" />
        </mxCell>
        <mxCell id="J_gT9gZSH8yEWvH8vErG-58" value="node-d00a-001" style="rounded=0;whiteSpace=wrap;html=1;align=left;verticalAlign=top;fontSize=24;fontFamily=Courier New;spacingLeft=3;" parent="J_gT9gZSH8yEWvH8vErG-48" vertex="1">
          <mxGeometry x="90" y="90" width="240" height="150" as="geometry" />
        </mxCell>
        <mxCell id="J_gT9gZSH8yEWvH8vErG-80" value="filesystems-quotas" style="locked=1;" parent="0" />
        <mxCell id="J_gT9gZSH8yEWvH8vErG-81" value="&lt;font style=&quot;font-size: 18px;&quot;&gt;home&lt;br&gt;2 M&lt;/font&gt;" style="shape=cylinder3;whiteSpace=wrap;html=1;boundedLbl=1;backgroundOutline=1;size=15;" parent="J_gT9gZSH8yEWvH8vErG-80" vertex="1">
          <mxGeometry x="740" y="240" width="90" height="80" as="geometry" />
        </mxCell>
        <mxCell id="J_gT9gZSH8yEWvH8vErG-85" value="" style="edgeStyle=segmentEdgeStyle;endArrow=none;html=1;curved=0;rounded=0;endSize=8;startSize=8;endFill=0;entryX=0.348;entryY=0.994;entryDx=0;entryDy=0;entryPerimeter=0;" parent="J_gT9gZSH8yEWvH8vErG-80" target="J_gT9gZSH8yEWvH8vErG-81" edge="1">
          <mxGeometry width="50" height="50" relative="1" as="geometry">
            <mxPoint x="660" y="340" as="sourcePoint" />
            <mxPoint x="790" y="280" as="targetPoint" />
          </mxGeometry>
        </mxCell>
        <mxCell id="J_gT9gZSH8yEWvH8vErG-86" value="&lt;font style=&quot;font-size: 18px;&quot;&gt;home&lt;br&gt;150 G&lt;br&gt;&lt;/font&gt;" style="shape=cylinder3;whiteSpace=wrap;html=1;boundedLbl=1;backgroundOutline=1;size=15;" parent="J_gT9gZSH8yEWvH8vErG-80" vertex="1">
          <mxGeometry x="790" y="640" width="190" height="90" as="geometry" />
        </mxCell>
        <mxCell id="J_gT9gZSH8yEWvH8vErG-87" value="&lt;font style=&quot;font-size: 18px;&quot;&gt;scratch&lt;br&gt;1 T&lt;br&gt;&lt;/font&gt;" style="shape=cylinder3;whiteSpace=wrap;html=1;boundedLbl=1;backgroundOutline=1;size=15;" parent="J_gT9gZSH8yEWvH8vErG-80" vertex="1">
          <mxGeometry x="1050" y="640" width="190" height="90" as="geometry" />
        </mxCell>
        <mxCell id="J_gT9gZSH8yEWvH8vErG-88" value="" style="shape=partialRectangle;whiteSpace=wrap;html=1;bottom=1;right=1;left=1;top=0;fillColor=none;routingCenterX=-0.5;rotation=-180;" parent="J_gT9gZSH8yEWvH8vErG-80" vertex="1">
          <mxGeometry x="880" y="600" width="260" height="40" as="geometry" />
        </mxCell>
        <mxCell id="J_gT9gZSH8yEWvH8vErG-91" value="" style="shape=partialRectangle;whiteSpace=wrap;html=1;bottom=0;right=0;fillColor=none;" parent="J_gT9gZSH8yEWvH8vErG-80" vertex="1">
          <mxGeometry x="1050" y="470" width="60" height="130" as="geometry" />
        </mxCell>
        <mxCell id="J_gT9gZSH8yEWvH8vErG-92" value="" style="shape=partialRectangle;whiteSpace=wrap;html=1;bottom=0;right=0;fillColor=none;" parent="J_gT9gZSH8yEWvH8vErG-80" vertex="1">
          <mxGeometry x="900" y="290" width="60" height="310" as="geometry" />
        </mxCell>
        <mxCell id="J_gT9gZSH8yEWvH8vErG-95" value="" style="endArrow=none;html=1;rounded=0;" parent="J_gT9gZSH8yEWvH8vErG-80" edge="1">
          <mxGeometry width="50" height="50" relative="1" as="geometry">
            <mxPoint x="990" y="600" as="sourcePoint" />
            <mxPoint x="990" y="425" as="targetPoint" />
          </mxGeometry>
        </mxCell>
        <mxCell id="J_gT9gZSH8yEWvH8vErG-97" value="" style="edgeStyle=segmentEdgeStyle;endArrow=none;html=1;curved=0;rounded=0;endSize=8;startSize=8;entryX=0.5;entryY=1;entryDx=0;entryDy=0;entryPerimeter=0;endFill=0;" parent="J_gT9gZSH8yEWvH8vErG-80" target="J_gT9gZSH8yEWvH8vErG-96" edge="1">
          <mxGeometry width="50" height="50" relative="1" as="geometry">
            <mxPoint x="660" y="450" as="sourcePoint" />
            <mxPoint x="785" y="280" as="targetPoint" />
          </mxGeometry>
        </mxCell>
        <mxCell id="J_gT9gZSH8yEWvH8vErG-96" value="&lt;font style=&quot;font-size: 18px;&quot;&gt;home&lt;br&gt;2 M&lt;/font&gt;" style="shape=cylinder3;whiteSpace=wrap;html=1;boundedLbl=1;backgroundOutline=1;size=15;" parent="J_gT9gZSH8yEWvH8vErG-80" vertex="1">
          <mxGeometry x="740" y="350" width="90" height="80" as="geometry" />
        </mxCell>
        <mxCell id="J_gT9gZSH8yEWvH8vErG-59" value="ssh-two-steps" style="locked=1;" parent="0" visible="0" />
        <mxCell id="J_gT9gZSH8yEWvH8vErG-61" value="&lt;font face=&quot;Courier New&quot; style=&quot;font-size: 18px;&quot;&gt;ssh &amp;lt;username&amp;gt;@ssh-gateway.ucl.ac.uk&lt;/font&gt;" style="shape=callout;whiteSpace=wrap;html=1;perimeter=calloutPerimeter;position2=0.22;size=40;position=0.24;" parent="J_gT9gZSH8yEWvH8vErG-59" vertex="1">
          <mxGeometry x="190" y="190" width="450" height="80" as="geometry" />
        </mxCell>
        <mxCell id="J_gT9gZSH8yEWvH8vErG-62" value="&lt;font face=&quot;Courier New&quot; style=&quot;font-size: 18px;&quot;&gt;ssh &amp;lt;username&amp;gt;@myriad.rc.ucl.ac.uk&lt;/font&gt;" style="shape=callout;whiteSpace=wrap;html=1;perimeter=calloutPerimeter;position2=0.16;size=40;position=0.24;" parent="J_gT9gZSH8yEWvH8vErG-59" vertex="1">
          <mxGeometry x="730" y="200" width="450" height="80" as="geometry" />
        </mxCell>
        <mxCell id="J_gT9gZSH8yEWvH8vErG-65" value="" style="endArrow=classic;html=1;rounded=0;strokeWidth=3;dashed=1;" parent="J_gT9gZSH8yEWvH8vErG-59" edge="1">
          <mxGeometry width="50" height="50" relative="1" as="geometry">
            <mxPoint x="210" y="300" as="sourcePoint" />
            <mxPoint x="380" y="300" as="targetPoint" />
          </mxGeometry>
        </mxCell>
        <mxCell id="J_gT9gZSH8yEWvH8vErG-67" value="" style="endArrow=classic;html=1;rounded=0;strokeWidth=3;dashed=1;" parent="J_gT9gZSH8yEWvH8vErG-59" edge="1">
          <mxGeometry width="50" height="50" relative="1" as="geometry">
            <mxPoint x="700" y="300" as="sourcePoint" />
            <mxPoint x="850" y="300" as="targetPoint" />
          </mxGeometry>
        </mxCell>
        <mxCell id="J_gT9gZSH8yEWvH8vErG-68" value="" style="endArrow=classic;html=1;rounded=0;strokeWidth=3;dashed=1;fillColor=#dae8fc;strokeColor=#999999;" parent="J_gT9gZSH8yEWvH8vErG-59" edge="1">
          <mxGeometry width="50" height="50" relative="1" as="geometry">
            <mxPoint x="380" y="300" as="sourcePoint" />
            <mxPoint x="440" y="340" as="targetPoint" />
          </mxGeometry>
        </mxCell>
        <mxCell id="J_gT9gZSH8yEWvH8vErG-69" value="" style="endArrow=classic;html=1;rounded=0;strokeWidth=3;dashed=1;fillColor=#dae8fc;strokeColor=#999999;" parent="J_gT9gZSH8yEWvH8vErG-59" edge="1">
          <mxGeometry width="50" height="50" relative="1" as="geometry">
            <mxPoint x="380" y="300" as="sourcePoint" />
            <mxPoint x="440" y="410" as="targetPoint" />
          </mxGeometry>
        </mxCell>
        <mxCell id="J_gT9gZSH8yEWvH8vErG-71" value="" style="endArrow=classic;html=1;rounded=0;strokeWidth=3;dashed=1;fillColor=#dae8fc;strokeColor=#999999;" parent="J_gT9gZSH8yEWvH8vErG-59" edge="1">
          <mxGeometry width="50" height="50" relative="1" as="geometry">
            <mxPoint x="850" y="300" as="sourcePoint" />
            <mxPoint x="960" y="290" as="targetPoint" />
          </mxGeometry>
        </mxCell>
        <mxCell id="J_gT9gZSH8yEWvH8vErG-72" value="" style="endArrow=classic;html=1;rounded=0;strokeWidth=3;dashed=1;fillColor=#dae8fc;strokeColor=#999999;" parent="J_gT9gZSH8yEWvH8vErG-59" edge="1">
          <mxGeometry width="50" height="50" relative="1" as="geometry">
            <mxPoint x="850" y="300" as="sourcePoint" />
            <mxPoint x="960" y="360" as="targetPoint" />
          </mxGeometry>
        </mxCell>
        <mxCell id="J_gT9gZSH8yEWvH8vErG-63" value="ssh-jump" style="locked=1;" parent="0" />
        <mxCell id="J_gT9gZSH8yEWvH8vErG-64" value="&lt;font face=&quot;Courier New&quot; style=&quot;font-size: 18px;&quot;&gt;ssh -J &amp;lt;username&amp;gt;@ssh-gateway.ucl.ac.uk &amp;lt;username&amp;gt;@myriad.rc.ucl.ac.uk&lt;/font&gt;" style="shape=callout;whiteSpace=wrap;html=1;perimeter=calloutPerimeter;position2=0.16;size=40;position=0.24;" parent="J_gT9gZSH8yEWvH8vErG-63" vertex="1">
          <mxGeometry x="90" y="170" width="840" height="80" as="geometry" />
        </mxCell>
        <mxCell id="J_gT9gZSH8yEWvH8vErG-73" value="" style="endArrow=none;html=1;rounded=0;strokeWidth=3;dashed=1;" parent="J_gT9gZSH8yEWvH8vErG-63" edge="1">
          <mxGeometry width="50" height="50" relative="1" as="geometry">
            <mxPoint x="210" y="320" as="sourcePoint" />
            <mxPoint x="380" y="320" as="targetPoint" />
          </mxGeometry>
        </mxCell>
        <mxCell id="J_gT9gZSH8yEWvH8vErG-74" value="" style="endArrow=none;html=1;rounded=0;strokeWidth=3;dashed=1;" parent="J_gT9gZSH8yEWvH8vErG-63" edge="1">
          <mxGeometry width="50" height="50" relative="1" as="geometry">
            <mxPoint x="700" y="331" as="sourcePoint" />
            <mxPoint x="850" y="331" as="targetPoint" />
          </mxGeometry>
        </mxCell>
        <mxCell id="J_gT9gZSH8yEWvH8vErG-75" value="" style="endArrow=none;html=1;rounded=0;strokeWidth=3;dashed=1;" parent="J_gT9gZSH8yEWvH8vErG-63" edge="1">
          <mxGeometry width="50" height="50" relative="1" as="geometry">
            <mxPoint x="380" y="320" as="sourcePoint" />
            <mxPoint x="440" y="360" as="targetPoint" />
          </mxGeometry>
        </mxCell>
        <mxCell id="J_gT9gZSH8yEWvH8vErG-76" value="" style="endArrow=none;html=1;rounded=0;strokeWidth=3;dashed=1;" parent="J_gT9gZSH8yEWvH8vErG-63" edge="1">
          <mxGeometry width="50" height="50" relative="1" as="geometry">
            <mxPoint x="440" y="360" as="sourcePoint" />
            <mxPoint x="660" y="360" as="targetPoint" />
          </mxGeometry>
        </mxCell>
        <mxCell id="J_gT9gZSH8yEWvH8vErG-77" value="" style="endArrow=none;html=1;rounded=0;strokeWidth=3;dashed=1;" parent="J_gT9gZSH8yEWvH8vErG-63" edge="1">
          <mxGeometry width="50" height="50" relative="1" as="geometry">
            <mxPoint x="700" y="330" as="sourcePoint" />
            <mxPoint x="660" y="360" as="targetPoint" />
          </mxGeometry>
        </mxCell>
        <mxCell id="J_gT9gZSH8yEWvH8vErG-79" value="" style="endArrow=none;html=1;rounded=0;strokeWidth=3;dashed=1;endFill=0;startArrow=classic;startFill=1;" parent="J_gT9gZSH8yEWvH8vErG-63" edge="1">
          <mxGeometry width="50" height="50" relative="1" as="geometry">
            <mxPoint x="960" y="290" as="sourcePoint" />
            <mxPoint x="850" y="330" as="targetPoint" />
          </mxGeometry>
        </mxCell>
      </root>
    </mxGraphModel>
  </diagram>
</mxfile>
